<svg width="40" height="40" viewBox="0 0 40 40" fill="none" xmlns="http://www.w3.org/2000/svg">
<rect width="40" height="40" fill="#EFE7DA"/>
<path d="M12.6236 21.72H24.1436L24.4236 22.84H12.0236L12.6236 21.72ZM33.8636 31.52C33.9969 31.52 34.0636 31.6 34.0636 31.76C34.0636 31.92 33.9969 32 33.8636 32C33.3303 32 32.5036 31.9733 31.3836 31.92C30.2103 31.8667 29.3703 31.84 28.8636 31.84C28.1969 31.84 27.3836 31.8667 26.4236 31.92C25.5169 31.9733 24.7969 32 24.2636 32C24.1569 32 24.1036 31.92 24.1036 31.76C24.1036 31.6 24.1569 31.52 24.2636 31.52C24.9569 31.52 25.4503 31.4533 25.7436 31.32C26.0636 31.16 26.2236 30.8933 26.2236 30.52C26.2236 30.0667 25.9569 29.3067 25.4236 28.24L17.3036 12.2L19.2636 8.76L11.3036 26.32C10.9569 27.0933 10.7836 27.8133 10.7836 28.48C10.7836 29.44 11.1169 30.1867 11.7836 30.72C12.4769 31.2533 13.3969 31.52 14.5436 31.52C14.6769 31.52 14.7436 31.6 14.7436 31.76C14.7436 31.92 14.6769 32 14.5436 32C14.0636 32 13.3703 31.9733 12.4636 31.92C11.4503 31.8667 10.5703 31.84 9.82359 31.84C9.10359 31.84 8.23693 31.8667 7.22359 31.92C6.31693 31.9733 5.58359 32 5.02359 32C4.91693 32 4.86359 31.92 4.86359 31.76C4.86359 31.6 4.91693 31.52 5.02359 31.52C5.77026 31.52 6.39693 31.3733 6.90359 31.08C7.41026 30.76 7.91693 30.2133 8.42359 29.44C8.93026 28.64 9.53026 27.4667 10.2236 25.92L18.9036 6.84C18.9569 6.76 19.0769 6.72 19.2636 6.72C19.4769 6.72 19.5969 6.76 19.6236 6.84L29.6236 26.52C30.5569 28.4133 31.3303 29.72 31.9436 30.44C32.5569 31.16 33.1969 31.52 33.8636 31.52Z" fill="#19231A"/>
</svg>
